<svg width="23" height="19" viewBox="0 0 23 19" fill="none" xmlns="http://www.w3.org/2000/svg">
<path fill-rule="evenodd" clip-rule="evenodd" d="M14.6491 2.61C15.5869 2.61 16.3472 3.37027 16.3472 4.30811L16.347 7.618L20.3933 3.5718C20.7912 3.17391 21.4363 3.17391 21.8342 3.5718C22.0253 3.76288 22.1327 4.02203 22.1327 4.29225V14.5127C22.1327 15.0754 21.6765 15.5315 21.1138 15.5315C20.8436 15.5315 20.5844 15.4242 20.3933 15.2331L16.347 11.186L16.3472 14.4968C16.3472 15.4347 15.5869 16.1949 14.6491 16.1949H2.49811C1.56027 16.1949 0.800003 15.4347 0.800003 14.4968V4.30811C0.800003 3.37027 1.56027 2.61 2.49811 2.61H14.6491Z" fill="white"/>
</svg>
