<svg width="24" height="24" viewBox="0 0 24 24" fill="none" xmlns="http://www.w3.org/2000/svg">
<g clip-path="url(#clip0)">
<path d="M9.94978 18.2926L7.12174 21.1206C5.9493 22.2931 4.05062 22.2931 2.87916 21.1209C1.70746 19.9492 1.70746 18.0503 2.87892 16.8789L8.53597 11.2218C9.70743 10.0503 11.6063 10.0503 12.7778 11.2218C13.1683 11.6123 13.8015 11.6123 14.192 11.2218C14.5825 10.8313 14.5825 10.1981 14.192 9.80758C12.2394 7.85503 9.07429 7.85503 7.12174 9.80758L1.46474 15.4646C-0.4878 17.4171 -0.4878 20.5823 1.46474 22.5348C3.41705 24.4884 6.58245 24.4884 8.53602 22.5348L11.3641 19.7068C11.7546 19.3163 11.7546 18.6831 11.3641 18.2926C10.9735 17.902 10.3403 17.9021 9.94978 18.2926Z" fill="white"/>
<path d="M22.5353 1.46438C20.5828 -0.488158 17.4166 -0.488158 15.464 1.46438L12.071 4.8574C11.6805 5.24792 11.6805 5.88111 12.071 6.27163C12.4615 6.66214 13.0947 6.66214 13.4852 6.27163L16.8783 2.87861C18.0497 1.7071 19.9496 1.7071 21.1211 2.87861C22.2925 4.05007 22.2925 5.94894 21.1211 7.12039L14.899 13.3425C13.7275 14.514 11.8287 14.514 10.6572 13.3425C10.2667 12.952 9.63354 12.952 9.24302 13.3425C8.8525 13.733 8.8525 14.3662 9.24302 14.7567C11.1956 16.7092 14.3607 16.7092 16.3133 14.7567L22.5353 8.53467C24.4878 6.58213 24.4878 3.41692 22.5353 1.46438Z" fill="white"/>
</g>
<defs>
<clipPath id="clip0">
<rect width="24" height="24" fill="white"/>
</clipPath>
</defs>
</svg>
