<svg width="16" height="22" viewBox="0 0 16 22" fill="none" xmlns="http://www.w3.org/2000/svg">
<path fill-rule="evenodd" clip-rule="evenodd" d="M8.07463 14.3308C5.91765 14.3308 4.16908 12.5822 4.16908 10.4252V3.90552C4.16908 1.74857 5.91765 0 8.07463 0C10.2316 0 11.9802 1.74857 11.9802 3.90552V10.4252C11.9802 12.5822 10.2316 14.3308 8.07463 14.3308Z" fill="white"/>
<path fill-rule="evenodd" clip-rule="evenodd" d="M14.4933 10.2181C15.0624 10.2181 15.5116 10.7197 15.4429 11.2847C14.9881 15.0274 12.1445 17.147 9.10479 17.5124L9.104 19.2641L11.1104 19.2647C11.6351 19.2647 12.0604 19.6901 12.0604 20.2148C12.0604 20.7392 11.6351 21.1645 11.1104 21.1645H5.19944C4.67483 21.1645 4.24955 20.7392 4.24955 20.2148C4.24955 19.6901 4.67483 19.2647 5.19944 19.2647L7.205 19.2641L7.20512 17.5124C4.16546 17.147 1.32177 15.0274 0.866944 11.2847C0.802886 10.7573 1.18989 10.2853 1.70444 10.2247L1.81657 10.2181C2.29318 10.2181 2.69505 10.5752 2.75263 11.0482C3.13816 14.2166 5.73168 15.6696 8.15496 15.6696C10.5782 15.6696 13.1717 14.2166 13.5573 11.0482C13.6149 10.5752 14.0167 10.2181 14.4933 10.2181Z" fill="white"/>
</svg>
