<svg width="24" height="24" viewBox="0 0 24 24" fill="none" xmlns="http://www.w3.org/2000/svg">
<path d="M0.501079 11.6664C1.11987 10.8245 2.29231 10.6523 3.11978 11.2819C3.19036 11.3356 3.25711 11.3943 3.31955 11.4576L9.30889 17.5265L20.476 1.78073C21.0737 0.93802 22.2296 0.747823 23.0579 1.35591C23.1204 1.40182 23.18 1.45167 23.2365 1.50516C24.1149 2.33796 24.2528 3.70326 23.5594 4.70049L10.3776 23.6561C10.1224 24.0231 9.6231 24.1101 9.26243 23.8504C9.22317 23.8222 9.1865 23.7904 9.15286 23.7554L0.71819 14.9901C-0.149714 14.0882 -0.241881 12.6772 0.501079 11.6664Z" fill="white"/>
</svg>
