<?xml version="1.0" encoding="UTF-8"?>
<svg width="32px" height="32px" viewBox="0 0 32 32" version="1.1" xmlns="http://www.w3.org/2000/svg" xmlns:xlink="http://www.w3.org/1999/xlink">
    <title>Artboard</title>
    <g id="Artboard" stroke="none" stroke-width="1" fill="none" fill-rule="evenodd">
        <g id="Group-3" fill="#FFFFFF">
            <path d="M12.8473413,17.4545455 C13.7851834,17.4545455 14.5454545,18.2148166 14.5454545,19.1526587 L14.5454545,30.3018868 C14.5454545,31.2397288 13.7851834,32 12.8473413,32 L1.69811321,32 C0.76027118,32 1.14852524e-16,31.2397288 0,30.3018868 L0,19.1526587 C1.07192081e-16,18.2148166 0.76027118,17.4545455 1.69811321,17.4545455 L12.8473413,17.4545455 Z M30.3018868,17.4545455 C31.2397288,17.4545455 32,18.2148166 32,19.1526587 L32,30.3018868 C32,31.2397288 31.2397288,32 30.3018868,32 L19.1526587,32 C18.2148166,32 17.4545455,31.2397288 17.4545455,30.3018868 L17.4545455,19.1526587 C17.4545455,18.2148166 18.2148166,17.4545455 19.1526587,17.4545455 L30.3018868,17.4545455 Z M12.8473413,0 C13.7851834,6.60692265e-16 14.5454545,0.76027118 14.5454545,1.69811321 L14.5454545,12.8473413 C14.5454545,13.7851834 13.7851834,14.5454545 12.8473413,14.5454545 L1.69811321,14.5454545 C0.76027118,14.5454545 7.25778969e-16,13.7851834 0,12.8473413 L0,1.69811321 C-1.14852524e-16,0.76027118 0.76027118,-4.97658193e-17 1.69811321,0 L12.8473413,0 Z M30.3018868,0 C31.2397288,4.97658193e-17 32,0.76027118 32,1.69811321 L32,12.8473413 C32,13.7851834 31.2397288,14.5454545 30.3018868,14.5454545 L19.1526587,14.5454545 C18.2148166,14.5454545 17.4545455,13.7851834 17.4545455,12.8473413 L17.4545455,1.69811321 C17.4545455,0.76027118 18.2148166,1.72278786e-16 19.1526587,0 L30.3018868,0 Z" id="Combined-Shape"></path>
        </g>
    </g>
</svg>