<?xml version="1.0" encoding="UTF-8"?>
<svg width="218px" height="56px" viewBox="0 0 218 56" version="1.1" xmlns="http://www.w3.org/2000/svg" xmlns:xlink="http://www.w3.org/1999/xlink">
    <title>Group</title>
    <g id="Page-1" stroke="none" stroke-width="1" fill="none" fill-rule="evenodd">
        <g id="title-bar" transform="translate(-23.000000, -35.000000)" fill="#FFFFFF" fill-rule="nonzero">
            <g id="Group" transform="translate(23.921875, 35.192383)">
                <g id="Beratung-&amp;-Hilfe" transform="translate(1.246094, 0.000000)">
                    <path d="M0,22.8076172 L0,1.47949219 L7.30957031,1.47949219 C9.72167969,1.47949219 11.5576172,1.96289062 12.8173828,2.9296875 C14.0771484,3.89648438 14.7070312,5.33691406 14.7070312,7.25097656 C14.7070312,8.22753906 14.4433594,9.10644531 13.9160156,9.88769531 C13.3886719,10.6689453 12.6171875,11.2744141 11.6015625,11.7041016 C12.7539062,12.0166016 13.6450195,12.6049805 14.2749023,13.4692383 C14.9047852,14.3334961 15.2197266,15.3710938 15.2197266,16.5820312 C15.2197266,18.5839844 14.5776367,20.1220703 13.293457,21.1962891 C12.0092773,22.2705078 10.1708984,22.8076172 7.77832031,22.8076172 L0,22.8076172 Z M3.70605469,13.1835938 L3.70605469,19.8486328 L7.82226562,19.8486328 C8.984375,19.8486328 9.89257812,19.5605469 10.546875,18.984375 C11.2011719,18.4082031 11.5283203,17.6074219 11.5283203,16.5820312 C11.5283203,14.3652344 10.3955078,13.2324219 8.12988281,13.1835938 L3.70605469,13.1835938 Z M3.70605469,10.4589844 L7.33886719,10.4589844 C8.49121094,10.4589844 9.39208984,10.1977539 10.0415039,9.67529297 C10.690918,9.15283203 11.015625,8.41308594 11.015625,7.45605469 C11.015625,6.40136719 10.715332,5.63964844 10.1147461,5.17089844 C9.51416016,4.70214844 8.57910156,4.46777344 7.30957031,4.46777344 L3.70605469,4.46777344 L3.70605469,10.4589844 Z" id="Shape"></path>
                    <path d="M25.5615234,23.1005859 C23.3056641,23.1005859 21.4770508,22.3901367 20.0756836,20.9692383 C18.6743164,19.5483398 17.9736328,17.65625 17.9736328,15.2929688 L17.9736328,14.8535156 C17.9736328,13.2714844 18.2788086,11.8579102 18.8891602,10.612793 C19.4995117,9.36767578 20.3564453,8.3984375 21.4599609,7.70507812 C22.5634766,7.01171875 23.7939453,6.66503906 25.1513672,6.66503906 C27.3095703,6.66503906 28.9770508,7.35351562 30.1538086,8.73046875 C31.3305664,10.1074219 31.9189453,12.0556641 31.9189453,14.5751953 L31.9189453,16.0107422 L21.5625,16.0107422 C21.6699219,17.3193359 22.1069336,18.3544922 22.8735352,19.1162109 C23.6401367,19.8779297 24.6044922,20.2587891 25.7666016,20.2587891 C27.3974609,20.2587891 28.7255859,19.5996094 29.7509766,18.28125 L31.6699219,20.1123047 C31.0351562,21.0595703 30.1879883,21.7944336 29.128418,22.3168945 C28.0688477,22.8393555 26.8798828,23.1005859 25.5615234,23.1005859 Z M25.1367188,9.52148438 C24.1601562,9.52148438 23.371582,9.86328125 22.7709961,10.546875 C22.1704102,11.2304688 21.7871094,12.1826172 21.6210938,13.4033203 L28.4033203,13.4033203 L28.4033203,13.1396484 C28.3251953,11.9482422 28.0078125,11.0473633 27.4511719,10.4370117 C26.8945312,9.82666016 26.1230469,9.52148438 25.1367188,9.52148438 Z" id="Shape"></path>
                    <path d="M42.9785156,10.2099609 C42.5097656,10.1318359 42.0263672,10.0927734 41.5283203,10.0927734 C39.8974609,10.0927734 38.7988281,10.7177734 38.2324219,11.9677734 L38.2324219,22.8076172 L34.6728516,22.8076172 L34.6728516,6.95800781 L38.0712891,6.95800781 L38.1591797,8.73046875 C39.0185547,7.35351562 40.2099609,6.66503906 41.7333984,6.66503906 C42.2412109,6.66503906 42.6611328,6.73339844 42.9931641,6.87011719 L42.9785156,10.2099609 Z" id="Path"></path>
                    <path d="M54.2578125,22.8076172 C54.1015625,22.5048828 53.9648438,22.0117188 53.8476562,21.328125 C52.7148438,22.5097656 51.328125,23.1005859 49.6875,23.1005859 C48.0957031,23.1005859 46.796875,22.6464844 45.7910156,21.7382812 C44.7851562,20.8300781 44.2822266,19.7070312 44.2822266,18.3691406 C44.2822266,16.6796875 44.909668,15.3833008 46.1645508,14.4799805 C47.4194336,13.5766602 49.2138672,13.125 51.5478516,13.125 L53.7304688,13.125 L53.7304688,12.0849609 C53.7304688,11.2646484 53.5009766,10.6079102 53.0419922,10.1147461 C52.5830078,9.62158203 51.8847656,9.375 50.9472656,9.375 C50.1367188,9.375 49.4726562,9.57763672 48.9550781,9.98291016 C48.4375,10.3881836 48.1787109,10.9033203 48.1787109,11.5283203 L44.6191406,11.5283203 C44.6191406,10.6591797 44.9072266,9.84619141 45.4833984,9.08935547 C46.0595703,8.33251953 46.8432617,7.73925781 47.8344727,7.30957031 C48.8256836,6.87988281 49.9316406,6.66503906 51.1523438,6.66503906 C53.0078125,6.66503906 54.4873047,7.13134766 55.5908203,8.06396484 C56.6943359,8.99658203 57.2607422,10.3076172 57.2900391,11.9970703 L57.2900391,19.1455078 C57.2900391,20.5712891 57.4902344,21.7089844 57.890625,22.5585938 L57.890625,22.8076172 L54.2578125,22.8076172 Z M50.3466797,20.2441406 C51.0498047,20.2441406 51.7114258,20.0732422 52.331543,19.7314453 C52.9516602,19.3896484 53.4179688,18.9306641 53.7304688,18.3544922 L53.7304688,15.3662109 L51.8115234,15.3662109 C50.4931641,15.3662109 49.5019531,15.5957031 48.8378906,16.0546875 C48.1738281,16.5136719 47.8417969,17.1630859 47.8417969,18.0029297 C47.8417969,18.6865234 48.0688477,19.230957 48.5229492,19.6362305 C48.9770508,20.0415039 49.5849609,20.2441406 50.3466797,20.2441406 Z" id="Shape"></path>
                    <path d="M65.4785156,3.10546875 L65.4785156,6.95800781 L68.2763672,6.95800781 L68.2763672,9.59472656 L65.4785156,9.59472656 L65.4785156,18.4423828 C65.4785156,19.0478516 65.5981445,19.4848633 65.8374023,19.753418 C66.0766602,20.0219727 66.5039062,20.15625 67.1191406,20.15625 C67.5292969,20.15625 67.9443359,20.1074219 68.3642578,20.0097656 L68.3642578,22.7636719 C67.5537109,22.9882812 66.7724609,23.1005859 66.0205078,23.1005859 C63.2861328,23.1005859 61.9189453,21.5917969 61.9189453,18.5742188 L61.9189453,9.59472656 L59.3115234,9.59472656 L59.3115234,6.95800781 L61.9189453,6.95800781 L61.9189453,3.10546875 L65.4785156,3.10546875 Z" id="Path"></path>
                    <path d="M80.5957031,21.2548828 C79.5507812,22.4853516 78.0664062,23.1005859 76.1425781,23.1005859 C74.4238281,23.1005859 73.1225586,22.5976562 72.2387695,21.5917969 C71.3549805,20.5859375 70.9130859,19.1308594 70.9130859,17.2265625 L70.9130859,6.95800781 L74.4726562,6.95800781 L74.4726562,17.1826172 C74.4726562,19.1943359 75.3076172,20.2001953 76.9775391,20.2001953 C78.7060547,20.2001953 79.8730469,19.5800781 80.4785156,18.3398438 L80.4785156,6.95800781 L84.0380859,6.95800781 L84.0380859,22.8076172 L80.6835938,22.8076172 L80.5957031,21.2548828 Z" id="Path"></path>
                    <path d="M90.9667969,6.95800781 L91.0693359,8.7890625 C92.2412109,7.37304688 93.7792969,6.66503906 95.6835938,6.66503906 C98.984375,6.66503906 100.664062,8.5546875 100.722656,12.3339844 L100.722656,22.8076172 L97.1630859,22.8076172 L97.1630859,12.5390625 C97.1630859,11.5332031 96.9458008,10.7885742 96.5112305,10.3051758 C96.0766602,9.82177734 95.3662109,9.58007812 94.3798828,9.58007812 C92.9443359,9.58007812 91.875,10.2294922 91.171875,11.5283203 L91.171875,22.8076172 L87.6123047,22.8076172 L87.6123047,6.95800781 L90.9667969,6.95800781 Z" id="Path"></path>
                    <path d="M103.725586,14.765625 C103.725586,12.3046875 104.304199,10.3393555 105.461426,8.86962891 C106.618652,7.39990234 108.154297,6.66503906 110.068359,6.66503906 C111.875,6.66503906 113.295898,7.29492188 114.331055,8.5546875 L114.492188,6.95800781 L117.700195,6.95800781 L117.700195,22.3242188 C117.700195,24.4042969 117.053223,26.0449219 115.759277,27.2460938 C114.465332,28.4472656 112.719727,29.0478516 110.522461,29.0478516 C109.360352,29.0478516 108.225098,28.8061523 107.116699,28.3227539 C106.008301,27.8393555 105.166016,27.2070312 104.589844,26.4257812 L106.274414,24.2871094 C107.368164,25.5859375 108.71582,26.2353516 110.317383,26.2353516 C111.499023,26.2353516 112.431641,25.9155273 113.115234,25.2758789 C113.798828,24.6362305 114.140625,23.6962891 114.140625,22.4560547 L114.140625,21.3867188 C113.115234,22.5292969 111.748047,23.1005859 110.039062,23.1005859 C108.183594,23.1005859 106.66748,22.3632812 105.490723,20.8886719 C104.313965,19.4140625 103.725586,17.3730469 103.725586,14.765625 Z M107.270508,15.0732422 C107.270508,16.6650391 107.595215,17.9174805 108.244629,18.8305664 C108.894043,19.7436523 109.794922,20.2001953 110.947266,20.2001953 C112.382812,20.2001953 113.447266,19.5849609 114.140625,18.3544922 L114.140625,11.3818359 C113.466797,10.1806641 112.412109,9.58007812 110.976562,9.58007812 C109.804688,9.58007812 108.894043,10.0439453 108.244629,10.9716797 C107.595215,11.8994141 107.270508,13.2666016 107.270508,15.0732422 Z" id="Shape"></path>
                    <path d="M128.261719,17.0507812 C128.261719,16.0644531 128.530273,15.1586914 129.067383,14.3334961 C129.604492,13.5083008 130.664062,12.5292969 132.246094,11.3964844 C131.416016,10.3515625 130.837402,9.46289062 130.510254,8.73046875 C130.183105,7.99804688 130.019531,7.29003906 130.019531,6.60644531 C130.019531,4.93652344 130.527344,3.61572266 131.542969,2.64404297 C132.558594,1.67236328 133.925781,1.18652344 135.644531,1.18652344 C137.197266,1.18652344 138.469238,1.64306641 139.460449,2.55615234 C140.45166,3.46923828 140.947266,4.59960938 140.947266,5.94726562 C140.947266,6.8359375 140.722656,7.65380859 140.273438,8.40087891 C139.824219,9.14794922 139.086914,9.89257812 138.061523,10.6347656 L136.611328,11.6894531 L140.727539,16.5527344 C141.323242,15.3808594 141.621094,14.0771484 141.621094,12.6416016 L144.711914,12.6416016 C144.711914,15.2685547 144.09668,17.421875 142.866211,19.1015625 L146.000977,22.8076172 L141.870117,22.8076172 L140.668945,21.3867188 C139.145508,22.5292969 137.329102,23.1005859 135.219727,23.1005859 C133.110352,23.1005859 131.42334,22.5415039 130.158691,21.4233398 C128.894043,20.3051758 128.261719,18.8476562 128.261719,17.0507812 Z M135.322266,20.2587891 C136.523438,20.2587891 137.646484,19.8583984 138.691406,19.0576172 L134.033203,13.5644531 L133.579102,13.8867188 C132.407227,14.7753906 131.821289,15.7910156 131.821289,16.9335938 C131.821289,17.9199219 132.138672,18.7207031 132.773438,19.3359375 C133.408203,19.9511719 134.257812,20.2587891 135.322266,20.2587891 Z M133.359375,6.51855469 C133.359375,7.33886719 133.862305,8.36914062 134.868164,9.609375 L136.494141,8.49609375 L136.948242,8.12988281 C137.553711,7.59277344 137.856445,6.90429688 137.856445,6.06445312 C137.856445,5.5078125 137.646484,5.03173828 137.226562,4.63623047 C136.806641,4.24072266 136.274414,4.04296875 135.629883,4.04296875 C134.936523,4.04296875 134.384766,4.27734375 133.974609,4.74609375 C133.564453,5.21484375 133.359375,5.80566406 133.359375,6.51855469 Z" id="Shape"></path>
                    <polygon id="Path" points="172.749023 22.8076172 169.057617 22.8076172 169.057617 13.3300781 159.521484 13.3300781 159.521484 22.8076172 155.81543 22.8076172 155.81543 1.47949219 159.521484 1.47949219 159.521484 10.3564453 169.057617 10.3564453 169.057617 1.47949219 172.749023 1.47949219"></polygon>
                    <path d="M180.571289,22.8076172 L177.011719,22.8076172 L177.011719,6.95800781 L180.571289,6.95800781 L180.571289,22.8076172 Z M176.791992,2.84179688 C176.791992,2.29492188 176.965332,1.84082031 177.312012,1.47949219 C177.658691,1.11816406 178.154297,0.9375 178.798828,0.9375 C179.443359,0.9375 179.941406,1.11816406 180.292969,1.47949219 C180.644531,1.84082031 180.820312,2.29492188 180.820312,2.84179688 C180.820312,3.37890625 180.644531,3.82568359 180.292969,4.18212891 C179.941406,4.53857422 179.443359,4.71679688 178.798828,4.71679688 C178.154297,4.71679688 177.658691,4.53857422 177.312012,4.18212891 C176.965332,3.82568359 176.791992,3.37890625 176.791992,2.84179688 Z" id="Shape"></path>
                    <polygon id="Path" points="188.232422 22.8076172 184.672852 22.8076172 184.672852 0.307617188 188.232422 0.307617188"></polygon>
                    <path d="M193.359375,22.8076172 L193.359375,9.59472656 L190.942383,9.59472656 L190.942383,6.95800781 L193.359375,6.95800781 L193.359375,5.5078125 C193.359375,3.75 193.847656,2.39257812 194.824219,1.43554688 C195.800781,0.478515625 197.167969,0 198.925781,0 C199.550781,0 200.214844,0.087890625 200.917969,0.263671875 L200.830078,3.046875 C200.439453,2.96875 199.985352,2.9296875 199.467773,2.9296875 C197.768555,2.9296875 196.918945,3.80371094 196.918945,5.55175781 L196.918945,6.95800781 L200.141602,6.95800781 L200.141602,9.59472656 L196.918945,9.59472656 L196.918945,22.8076172 L193.359375,22.8076172 Z" id="Path"></path>
                    <path d="M209.370117,23.1005859 C207.114258,23.1005859 205.285645,22.3901367 203.884277,20.9692383 C202.48291,19.5483398 201.782227,17.65625 201.782227,15.2929688 L201.782227,14.8535156 C201.782227,13.2714844 202.087402,11.8579102 202.697754,10.612793 C203.308105,9.36767578 204.165039,8.3984375 205.268555,7.70507812 C206.37207,7.01171875 207.602539,6.66503906 208.959961,6.66503906 C211.118164,6.66503906 212.785645,7.35351562 213.962402,8.73046875 C215.13916,10.1074219 215.727539,12.0556641 215.727539,14.5751953 L215.727539,16.0107422 L205.371094,16.0107422 C205.478516,17.3193359 205.915527,18.3544922 206.682129,19.1162109 C207.44873,19.8779297 208.413086,20.2587891 209.575195,20.2587891 C211.206055,20.2587891 212.53418,19.5996094 213.55957,18.28125 L215.478516,20.1123047 C214.84375,21.0595703 213.996582,21.7944336 212.937012,22.3168945 C211.877441,22.8393555 210.688477,23.1005859 209.370117,23.1005859 Z M208.945312,9.52148438 C207.96875,9.52148438 207.180176,9.86328125 206.57959,10.546875 C205.979004,11.2304688 205.595703,12.1826172 205.429688,13.4033203 L212.211914,13.4033203 L212.211914,13.1396484 C212.133789,11.9482422 211.816406,11.0473633 211.259766,10.4370117 C210.703125,9.82666016 209.931641,9.52148438 208.945312,9.52148438 Z" id="Shape"></path>
                </g>
                <g id="Online.-Anonym.-Sich" transform="translate(0.000000, 39.807617)">
                    <path d="M9.1484375,6.6796875 C9.1484375,7.79427083 8.9609375,8.76692708 8.5859375,9.59765625 C8.2109375,10.4283854 7.6796875,11.0625 6.9921875,11.5 C6.3046875,11.9375 5.50260417,12.15625 4.5859375,12.15625 C3.69010417,12.15625 2.89583333,11.9361979 2.203125,11.4960938 C1.51041667,11.0559896 0.97265625,10.4283854 0.58984375,9.61328125 C0.20703125,8.79817708 0.0104166667,7.85416667 0,6.78125 L0,5.9609375 C0,4.8671875 0.190104167,3.90104167 0.5703125,3.0625 C0.950520833,2.22395833 1.48828125,1.58203125 2.18359375,1.13671875 C2.87890625,0.69140625 3.67447917,0.46875 4.5703125,0.46875 C5.48177083,0.46875 6.28515625,0.688802083 6.98046875,1.12890625 C7.67578125,1.56901042 8.2109375,2.20703125 8.5859375,3.04296875 C8.9609375,3.87890625 9.1484375,4.8515625 9.1484375,5.9609375 L9.1484375,6.6796875 Z M7.65625,5.9453125 C7.65625,4.59635417 7.38541667,3.56119792 6.84375,2.83984375 C6.30208333,2.11848958 5.54427083,1.7578125 4.5703125,1.7578125 C3.62239583,1.7578125 2.87630208,2.11848958 2.33203125,2.83984375 C1.78776042,3.56119792 1.5078125,4.5625 1.4921875,5.84375 L1.4921875,6.6796875 C1.4921875,7.98697917 1.76692708,9.01432292 2.31640625,9.76171875 C2.86588542,10.5091146 3.62239583,10.8828125 4.5859375,10.8828125 C5.5546875,10.8828125 6.3046875,10.5299479 6.8359375,9.82421875 C7.3671875,9.11848958 7.640625,8.10677083 7.65625,6.7890625 L7.65625,5.9453125 Z" id="Shape"></path>
                    <path d="M12.5390625,3.546875 L12.5859375,4.609375 C13.2317708,3.796875 14.0755208,3.390625 15.1171875,3.390625 C16.9036458,3.390625 17.8046875,4.3984375 17.8203125,6.4140625 L17.8203125,12 L16.375,12 L16.375,6.40625 C16.3697917,5.796875 16.2304688,5.34635417 15.9570312,5.0546875 C15.6835938,4.76302083 15.2578125,4.6171875 14.6796875,4.6171875 C14.2109375,4.6171875 13.7994792,4.7421875 13.4453125,4.9921875 C13.0911458,5.2421875 12.8151042,5.5703125 12.6171875,5.9765625 L12.6171875,12 L11.171875,12 L11.171875,3.546875 L12.5390625,3.546875 Z" id="Path"></path>
                    <polygon id="Path" points="21.5703125 12 20.125 12 20.125 0 21.5703125 0"></polygon>
                    <path d="M25.453125,12 L24.0078125,12 L24.0078125,3.546875 L25.453125,3.546875 L25.453125,12 Z M23.890625,1.3046875 C23.890625,1.0703125 23.9622396,0.872395833 24.1054688,0.7109375 C24.2486979,0.549479167 24.4609375,0.46875 24.7421875,0.46875 C25.0234375,0.46875 25.2369792,0.549479167 25.3828125,0.7109375 C25.5286458,0.872395833 25.6015625,1.0703125 25.6015625,1.3046875 C25.6015625,1.5390625 25.5286458,1.734375 25.3828125,1.890625 C25.2369792,2.046875 25.0234375,2.125 24.7421875,2.125 C24.4609375,2.125 24.2486979,2.046875 24.1054688,1.890625 C23.9622396,1.734375 23.890625,1.5390625 23.890625,1.3046875 Z" id="Shape"></path>
                    <path d="M29.1328125,3.546875 L29.1796875,4.609375 C29.8255208,3.796875 30.6692708,3.390625 31.7109375,3.390625 C33.4973958,3.390625 34.3984375,4.3984375 34.4140625,6.4140625 L34.4140625,12 L32.96875,12 L32.96875,6.40625 C32.9635417,5.796875 32.8242188,5.34635417 32.5507812,5.0546875 C32.2773438,4.76302083 31.8515625,4.6171875 31.2734375,4.6171875 C30.8046875,4.6171875 30.3932292,4.7421875 30.0390625,4.9921875 C29.6848958,5.2421875 29.4088542,5.5703125 29.2109375,5.9765625 L29.2109375,12 L27.765625,12 L27.765625,3.546875 L29.1328125,3.546875 Z" id="Path"></path>
                    <path d="M40.1015625,12.15625 C38.9557292,12.15625 38.0234375,11.7799479 37.3046875,11.0273438 C36.5859375,10.2747396 36.2265625,9.26822917 36.2265625,8.0078125 L36.2265625,7.7421875 C36.2265625,6.90364583 36.3867188,6.15494792 36.7070312,5.49609375 C37.0273438,4.83723958 37.4752604,4.32161458 38.0507812,3.94921875 C38.6263021,3.57682292 39.25,3.390625 39.921875,3.390625 C41.0208333,3.390625 41.875,3.75260417 42.484375,4.4765625 C43.09375,5.20052083 43.3984375,6.23697917 43.3984375,7.5859375 L43.3984375,8.1875 L37.671875,8.1875 C37.6927083,9.02083333 37.9361979,9.69401042 38.4023438,10.2070312 C38.8684896,10.7200521 39.4609375,10.9765625 40.1796875,10.9765625 C40.6901042,10.9765625 41.1223958,10.8723958 41.4765625,10.6640625 C41.8307292,10.4557292 42.140625,10.1796875 42.40625,9.8359375 L43.2890625,10.5234375 C42.5807292,11.6119792 41.5182292,12.15625 40.1015625,12.15625 Z M39.921875,4.578125 C39.3385417,4.578125 38.8489583,4.79036458 38.453125,5.21484375 C38.0572917,5.63932292 37.8125,6.234375 37.71875,7 L41.953125,7 L41.953125,6.890625 C41.9114583,6.15625 41.7135417,5.58723958 41.359375,5.18359375 C41.0052083,4.77994792 40.5260417,4.578125 39.921875,4.578125 Z" id="Shape"></path>
                    <path d="M45.1015625,11.2421875 C45.1015625,10.9921875 45.1757812,10.7838542 45.3242188,10.6171875 C45.4726562,10.4505208 45.6953125,10.3671875 45.9921875,10.3671875 C46.2890625,10.3671875 46.5143229,10.4505208 46.6679688,10.6171875 C46.8216146,10.7838542 46.8984375,10.9921875 46.8984375,11.2421875 C46.8984375,11.4817708 46.8216146,11.6822917 46.6679688,11.84375 C46.5143229,12.0052083 46.2890625,12.0859375 45.9921875,12.0859375 C45.6953125,12.0859375 45.4726562,12.0052083 45.3242188,11.84375 C45.1757812,11.6822917 45.1015625,11.4817708 45.1015625,11.2421875 Z" id="Path"></path>
                    <path d="M59.75,9.03125 L54.984375,9.03125 L53.9140625,12 L52.3671875,12 L56.7109375,0.625 L58.0234375,0.625 L62.375,12 L60.8359375,12 L59.75,9.03125 Z M55.4375,7.796875 L59.3046875,7.796875 L57.3671875,2.4765625 L55.4375,7.796875 Z" id="Shape"></path>
                    <path d="M65.046875,3.546875 L65.09375,4.609375 C65.7395833,3.796875 66.5833333,3.390625 67.625,3.390625 C69.4114583,3.390625 70.3125,4.3984375 70.328125,6.4140625 L70.328125,12 L68.8828125,12 L68.8828125,6.40625 C68.8776042,5.796875 68.7382812,5.34635417 68.4648438,5.0546875 C68.1914062,4.76302083 67.765625,4.6171875 67.1875,4.6171875 C66.71875,4.6171875 66.3072917,4.7421875 65.953125,4.9921875 C65.5989583,5.2421875 65.3229167,5.5703125 65.125,5.9765625 L65.125,12 L63.6796875,12 L63.6796875,3.546875 L65.046875,3.546875 Z" id="Path"></path>
                    <path d="M72.125,7.6953125 C72.125,6.8671875 72.2877604,6.12239583 72.6132812,5.4609375 C72.9388021,4.79947917 73.3919271,4.2890625 73.9726562,3.9296875 C74.5533854,3.5703125 75.2161458,3.390625 75.9609375,3.390625 C77.1119792,3.390625 78.0429688,3.7890625 78.7539062,4.5859375 C79.4648438,5.3828125 79.8203125,6.44270833 79.8203125,7.765625 L79.8203125,7.8671875 C79.8203125,8.69010417 79.6627604,9.42838542 79.3476562,10.0820312 C79.0325521,10.7356771 78.5820312,11.2447917 77.9960938,11.609375 C77.4101562,11.9739583 76.7369792,12.15625 75.9765625,12.15625 C74.8307292,12.15625 73.9023438,11.7578125 73.1914062,10.9609375 C72.4804688,10.1640625 72.125,9.109375 72.125,7.796875 L72.125,7.6953125 Z M73.578125,7.8671875 C73.578125,8.8046875 73.7955729,9.55729167 74.2304688,10.125 C74.6653646,10.6927083 75.2473958,10.9765625 75.9765625,10.9765625 C76.7109375,10.9765625 77.2942708,10.6888021 77.7265625,10.1132812 C78.1588542,9.53776042 78.375,8.73177083 78.375,7.6953125 C78.375,6.76822917 78.1549479,6.01692708 77.7148438,5.44140625 C77.2747396,4.86588542 76.6901042,4.578125 75.9609375,4.578125 C75.2473958,4.578125 74.671875,4.86197917 74.234375,5.4296875 C73.796875,5.99739583 73.578125,6.80989583 73.578125,7.8671875 Z" id="Shape"></path>
                    <path d="M83,3.546875 L83.046875,4.609375 C83.6927083,3.796875 84.5364583,3.390625 85.578125,3.390625 C87.3645833,3.390625 88.265625,4.3984375 88.28125,6.4140625 L88.28125,12 L86.8359375,12 L86.8359375,6.40625 C86.8307292,5.796875 86.6914062,5.34635417 86.4179688,5.0546875 C86.1445312,4.76302083 85.71875,4.6171875 85.140625,4.6171875 C84.671875,4.6171875 84.2604167,4.7421875 83.90625,4.9921875 C83.5520833,5.2421875 83.2760417,5.5703125 83.078125,5.9765625 L83.078125,12 L81.6328125,12 L81.6328125,3.546875 L83,3.546875 Z" id="Path"></path>
                    <path d="M93.2265625,9.8828125 L95.1953125,3.546875 L96.7421875,3.546875 L93.34375,13.3046875 C92.8177083,14.7109375 91.9817708,15.4140625 90.8359375,15.4140625 L90.5625,15.390625 L90.0234375,15.2890625 L90.0234375,14.1171875 L90.4140625,14.1484375 C90.9036458,14.1484375 91.2851562,14.0494792 91.5585938,13.8515625 C91.8320312,13.6536458 92.0572917,13.2916667 92.234375,12.765625 L92.5546875,11.90625 L89.5390625,3.546875 L91.1171875,3.546875 L93.2265625,9.8828125 Z" id="Path"></path>
                    <path d="M99.390625,3.546875 L99.4296875,4.484375 C100.049479,3.75520833 100.885417,3.390625 101.9375,3.390625 C103.119792,3.390625 103.924479,3.84375 104.351562,4.75 C104.632812,4.34375 104.998698,4.015625 105.449219,3.765625 C105.89974,3.515625 106.432292,3.390625 107.046875,3.390625 C108.901042,3.390625 109.84375,4.37239583 109.875,6.3359375 L109.875,12 L108.429688,12 L108.429688,6.421875 C108.429688,5.81770833 108.291667,5.36588542 108.015625,5.06640625 C107.739583,4.76692708 107.276042,4.6171875 106.625,4.6171875 C106.088542,4.6171875 105.643229,4.77734375 105.289062,5.09765625 C104.934896,5.41796875 104.729167,5.84895833 104.671875,6.390625 L104.671875,12 L103.21875,12 L103.21875,6.4609375 C103.21875,5.23177083 102.617188,4.6171875 101.414062,4.6171875 C100.466146,4.6171875 99.8177083,5.02083333 99.46875,5.828125 L99.46875,12 L98.0234375,12 L98.0234375,3.546875 L99.390625,3.546875 Z" id="Path"></path>
                    <path d="M112.085938,11.2421875 C112.085938,10.9921875 112.160156,10.7838542 112.308594,10.6171875 C112.457031,10.4505208 112.679688,10.3671875 112.976562,10.3671875 C113.273438,10.3671875 113.498698,10.4505208 113.652344,10.6171875 C113.80599,10.7838542 113.882812,10.9921875 113.882812,11.2421875 C113.882812,11.4817708 113.80599,11.6822917 113.652344,11.84375 C113.498698,12.0052083 113.273438,12.0859375 112.976562,12.0859375 C112.679688,12.0859375 112.457031,12.0052083 112.308594,11.84375 C112.160156,11.6822917 112.085938,11.4817708 112.085938,11.2421875 Z" id="Path"></path>
                    <path d="M123.804688,6.9296875 C122.518229,6.55989583 121.582031,6.10546875 120.996094,5.56640625 C120.410156,5.02734375 120.117188,4.36197917 120.117188,3.5703125 C120.117188,2.67447917 120.47526,1.93359375 121.191406,1.34765625 C121.907552,0.76171875 122.838542,0.46875 123.984375,0.46875 C124.765625,0.46875 125.46224,0.619791667 126.074219,0.921875 C126.686198,1.22395833 127.160156,1.640625 127.496094,2.171875 C127.832031,2.703125 128,3.28385417 128,3.9140625 L126.492188,3.9140625 C126.492188,3.2265625 126.273438,2.68619792 125.835938,2.29296875 C125.398438,1.89973958 124.78125,1.703125 123.984375,1.703125 C123.244792,1.703125 122.667969,1.86588542 122.253906,2.19140625 C121.839844,2.51692708 121.632812,2.96875 121.632812,3.546875 C121.632812,4.01041667 121.829427,4.40234375 122.222656,4.72265625 C122.615885,5.04296875 123.285156,5.3359375 124.230469,5.6015625 C125.175781,5.8671875 125.915365,6.16015625 126.449219,6.48046875 C126.983073,6.80078125 127.378906,7.17447917 127.636719,7.6015625 C127.894531,8.02864583 128.023438,8.53125 128.023438,9.109375 C128.023438,10.03125 127.664062,10.7695312 126.945312,11.3242188 C126.226562,11.8789062 125.265625,12.15625 124.0625,12.15625 C123.28125,12.15625 122.552083,12.0065104 121.875,11.7070312 C121.197917,11.4075521 120.675781,10.9973958 120.308594,10.4765625 C119.941406,9.95572917 119.757812,9.36458333 119.757812,8.703125 L121.265625,8.703125 C121.265625,9.390625 121.519531,9.93359375 122.027344,10.3320312 C122.535156,10.7304688 123.213542,10.9296875 124.0625,10.9296875 C124.854167,10.9296875 125.460938,10.7682292 125.882812,10.4453125 C126.304688,10.1223958 126.515625,9.68229167 126.515625,9.125 C126.515625,8.56770833 126.320312,8.13671875 125.929688,7.83203125 C125.539062,7.52734375 124.830729,7.2265625 123.804688,6.9296875 Z" id="Path"></path>
                    <path d="M131.289062,12 L129.84375,12 L129.84375,3.546875 L131.289062,3.546875 L131.289062,12 Z M129.726562,1.3046875 C129.726562,1.0703125 129.798177,0.872395833 129.941406,0.7109375 C130.084635,0.549479167 130.296875,0.46875 130.578125,0.46875 C130.859375,0.46875 131.072917,0.549479167 131.21875,0.7109375 C131.364583,0.872395833 131.4375,1.0703125 131.4375,1.3046875 C131.4375,1.5390625 131.364583,1.734375 131.21875,1.890625 C131.072917,2.046875 130.859375,2.125 130.578125,2.125 C130.296875,2.125 130.084635,2.046875 129.941406,1.890625 C129.798177,1.734375 129.726562,1.5390625 129.726562,1.3046875 Z" id="Shape"></path>
                    <path d="M136.992188,10.9765625 C137.507812,10.9765625 137.958333,10.8203125 138.34375,10.5078125 C138.729167,10.1953125 138.942708,9.8046875 138.984375,9.3359375 L140.351562,9.3359375 C140.325521,9.8203125 140.158854,10.28125 139.851562,10.71875 C139.544271,11.15625 139.134115,11.5052083 138.621094,11.765625 C138.108073,12.0260417 137.565104,12.15625 136.992188,12.15625 C135.841146,12.15625 134.925781,11.7721354 134.246094,11.0039062 C133.566406,10.2356771 133.226562,9.18489583 133.226562,7.8515625 L133.226562,7.609375 C133.226562,6.78645833 133.377604,6.0546875 133.679688,5.4140625 C133.981771,4.7734375 134.415365,4.27604167 134.980469,3.921875 C135.545573,3.56770833 136.213542,3.390625 136.984375,3.390625 C137.932292,3.390625 138.720052,3.67447917 139.347656,4.2421875 C139.97526,4.80989583 140.309896,5.546875 140.351562,6.453125 L138.984375,6.453125 C138.942708,5.90625 138.735677,5.45703125 138.363281,5.10546875 C137.990885,4.75390625 137.53125,4.578125 136.984375,4.578125 C136.25,4.578125 135.68099,4.84244792 135.277344,5.37109375 C134.873698,5.89973958 134.671875,6.6640625 134.671875,7.6640625 L134.671875,7.9375 C134.671875,8.91145833 134.872396,9.66145833 135.273438,10.1875 C135.674479,10.7135417 136.247396,10.9765625 136.992188,10.9765625 Z" id="Path"></path>
                    <path d="M143.421875,4.5703125 C144.0625,3.78385417 144.895833,3.390625 145.921875,3.390625 C147.708333,3.390625 148.609375,4.3984375 148.625,6.4140625 L148.625,12 L147.179688,12 L147.179688,6.40625 C147.174479,5.796875 147.035156,5.34635417 146.761719,5.0546875 C146.488281,4.76302083 146.0625,4.6171875 145.484375,4.6171875 C145.015625,4.6171875 144.604167,4.7421875 144.25,4.9921875 C143.895833,5.2421875 143.619792,5.5703125 143.421875,5.9765625 L143.421875,12 L141.976562,12 L141.976562,0 L143.421875,0 L143.421875,4.5703125 Z" id="Path"></path>
                    <path d="M154.296875,12.15625 C153.151042,12.15625 152.21875,11.7799479 151.5,11.0273438 C150.78125,10.2747396 150.421875,9.26822917 150.421875,8.0078125 L150.421875,7.7421875 C150.421875,6.90364583 150.582031,6.15494792 150.902344,5.49609375 C151.222656,4.83723958 151.670573,4.32161458 152.246094,3.94921875 C152.821615,3.57682292 153.445312,3.390625 154.117188,3.390625 C155.216146,3.390625 156.070312,3.75260417 156.679688,4.4765625 C157.289062,5.20052083 157.59375,6.23697917 157.59375,7.5859375 L157.59375,8.1875 L151.867188,8.1875 C151.888021,9.02083333 152.13151,9.69401042 152.597656,10.2070312 C153.063802,10.7200521 153.65625,10.9765625 154.375,10.9765625 C154.885417,10.9765625 155.317708,10.8723958 155.671875,10.6640625 C156.026042,10.4557292 156.335938,10.1796875 156.601562,9.8359375 L157.484375,10.5234375 C156.776042,11.6119792 155.713542,12.15625 154.296875,12.15625 Z M154.117188,4.578125 C153.533854,4.578125 153.044271,4.79036458 152.648438,5.21484375 C152.252604,5.63932292 152.007812,6.234375 151.914062,7 L156.148438,7 L156.148438,6.890625 C156.106771,6.15625 155.908854,5.58723958 155.554688,5.18359375 C155.200521,4.77994792 154.721354,4.578125 154.117188,4.578125 Z" id="Shape"></path>
                    <path d="M163.351562,4.84375 C163.132812,4.80729167 162.895833,4.7890625 162.640625,4.7890625 C161.692708,4.7890625 161.049479,5.19270833 160.710938,6 L160.710938,12 L159.265625,12 L159.265625,3.546875 L160.671875,3.546875 L160.695312,4.5234375 C161.169271,3.76822917 161.841146,3.390625 162.710938,3.390625 C162.992188,3.390625 163.205729,3.42708333 163.351562,3.5 L163.351562,4.84375 Z" id="Path"></path>
                    <path d="M163.75,11.2421875 C163.75,10.9921875 163.824219,10.7838542 163.972656,10.6171875 C164.121094,10.4505208 164.34375,10.3671875 164.640625,10.3671875 C164.9375,10.3671875 165.16276,10.4505208 165.316406,10.6171875 C165.470052,10.7838542 165.546875,10.9921875 165.546875,11.2421875 C165.546875,11.4817708 165.470052,11.6822917 165.316406,11.84375 C165.16276,12.0052083 164.9375,12.0859375 164.640625,12.0859375 C164.34375,12.0859375 164.121094,12.0052083 163.972656,11.84375 C163.824219,11.6822917 163.75,11.4817708 163.75,11.2421875 Z" id="Path"></path>
                </g>
            </g>
        </g>
    </g>
</svg>